# xmcd
#
# Track frame offsets:
#       150
#       20677
#       39621
#       59258
#       75087
#       89332
#       107589
#       126174
#       145756
#       163225
#       188541
#
# Disc length: 2823 seconds
#
# Revision: 1
# Processed by: cddbd v1.5.1PL0 Copyright (c) Steve Scherf et al.
# Submitted via: MusiCat 1.1
#
DISCID=860b050b
DTITLE=Nanette Workman - Roots 'n Blues
DYEAR=2003
DGENRE=Blues
TTITLE0=Breaking Up Somebody's Home
TTITLE1=So Hard To Do
TTITLE2=Trouble Comes Around
TTITLE3=I'm A Woman
TTITLE4=None Of My Business
TTITLE5=All In My Head
TTITLE6=Just Another Night
TTITLE7=Belly Achin' Blues
TTITLE8=Take The Devil By The Horns
TTITLE9=At The Mercy
TTITLE10=Hallelujah
EXTD=Disques Yon Chaleigner\nNW DYC 001\n
EXTT0=
EXTT1=
EXTT2=
EXTT3=
EXTT4=
EXTT5=
EXTT6=
EXTT7=
EXTT8=
EXTT9=
EXTT10=
PLAYORDER=
